<?xml version="1.0" encoding="utf-8"?>
<!-- Generator: Adobe Illustrator 23.0.2, SVG Export Plug-In . SVG Version: 6.00 Build 0)  -->
<svg width="48px" height="48px" version="1.1" id="Capa_1" xmlns="http://www.w3.org/2000/svg" xmlns:xlink="http://www.w3.org/1999/xlink" x="0px" y="0px"
	 viewBox="0 0 48.54 48.2" style="enable-background:new 0 0 48.54 48.2;" xml:space="preserve">
<style type="text/css">
	.st0{fill:none;stroke:#7510F7;stroke-width:2;stroke-miterlimit:10;}
</style>
<g>
	<g>
		<path class="st0" d="M47.33,34.42c0,1.47-1.08,2.65-2.42,2.65H3.56c-1.34,0-2.42-1.19-2.42-2.65V5.61c0-1.47,1.08-2.66,2.42-2.66
			h41.35c1.34,0,2.42,1.19,2.42,2.66V34.42z"/>
		<rect x="3.87" y="6.04" class="st0" width="40.72" height="27.94"/>
		<rect x="19.87" y="37.07" class="st0" width="8.73" height="7.18"/>
		<path class="st0" d="M31.47,44.26H28.5h-4.27h-4.27h-2.97c0,0-1.88,0-2.08,2.3h9.32h9.32C33.36,44.26,31.47,44.26,31.47,44.26z"/>
	</g>
	<polyline class="st0" points="6.72,17.3 6.72,31.1 17.9,31.1 	"/>
	<g>
		<path class="st0" d="M32.19,20.12c0-0.27-0.01-0.53-0.03-0.78l1.59-0.46l-0.71-2.99l-1.62,0.47c-0.34-0.78-0.79-1.5-1.32-2.13
			l1.04-1.48l-2.23-1.89l-1.06,1.5c-0.68-0.38-1.42-0.66-2.2-0.81V9.63h-2.82v1.91c-0.74,0.14-1.44,0.4-2.1,0.75l-1.04-1.52
			l-2.26,1.86l1.02,1.5c-0.39,0.45-0.73,0.95-1.03,1.48l-1.58-0.64l-0.97,2.91l1.55,0.63c-0.09,0.52-0.14,1.06-0.14,1.62
			c0,0.19,0.01,0.38,0.02,0.57l-1.58,0.45l0.71,3l1.54-0.44c0.33,0.82,0.78,1.57,1.31,2.23l-0.96,1.37l2.23,1.89l0.94-1.34
			c0.71,0.42,1.49,0.71,2.31,0.87v1.69h2.82v-1.69c0.78-0.15,1.52-0.43,2.21-0.82l0.93,1.36l2.26-1.86l-0.94-1.38
			c0.4-0.48,0.75-1,1.04-1.57l1.49,0.6l0.97-2.91l-1.52-0.61C32.15,21.08,32.19,20.61,32.19,20.12z M24.23,25.96
			c-2.99,0-5.42-2.66-5.42-5.94c0-3.28,2.43-5.95,5.42-5.95c2.99,0,5.41,2.66,5.41,5.95C29.65,23.3,27.22,25.96,24.23,25.96z" fill="#7510F7"/>
	</g>
</g>
</svg>
