<?xml version="1.0" standalone="no"?>
<svg xmlns:xlink="http://www.w3.org/1999/xlink" id="wave" style="transform:rotate(0deg); transition: 0.3s" viewBox="0 0 1440 120" version="1.1" xmlns="http://www.w3.org/2000/svg"><defs><linearGradient id="sw-gradient-0" x1="0" x2="0" y1="1" y2="0"><stop stop-color="#0B0D2F" offset="0%"/><stop stop-color="#0B0D2F" offset="100%"/></linearGradient></defs><path style="transform:translate(0, 0px); opacity:1" fill="#0B0D2F" d="M0,84L48,86C96,88,192,92,288,78C384,64,480,32,576,20C672,8,768,16,864,28C960,40,1056,56,1152,62C1248,68,1344,64,1440,64C1536,64,1632,68,1728,72C1824,76,1920,80,2016,72C2112,64,2208,44,2304,48C2400,52,2496,80,2592,82C2688,84,2784,60,2880,60C2976,60,3072,84,3168,88C3264,92,3360,76,3456,62C3552,48,3648,36,3744,26C3840,16,3936,8,4032,14C4128,20,4224,40,4320,56C4416,72,4512,84,4608,92C4704,100,4800,104,4896,90C4992,76,5088,44,5184,28C5280,12,5376,12,5472,20C5568,28,5664,44,5760,52C5856,60,5952,60,6048,58C6144,56,6240,52,6336,54C6432,56,6528,64,6624,64C6720,64,6816,56,6864,52L6912,48L6912,120L6864,120C6816,120,6720,120,6624,120C6528,120,6432,120,6336,120C6240,120,6144,120,6048,120C5952,120,5856,120,5760,120C5664,120,5568,120,5472,120C5376,120,5280,120,5184,120C5088,120,4992,120,4896,120C4800,120,4704,120,4608,120C4512,120,4416,120,4320,120C4224,120,4128,120,4032,120C3936,120,3840,120,3744,120C3648,120,3552,120,3456,120C3360,120,3264,120,3168,120C3072,120,2976,120,2880,120C2784,120,2688,120,2592,120C2496,120,2400,120,2304,120C2208,120,2112,120,2016,120C1920,120,1824,120,1728,120C1632,120,1536,120,1440,120C1344,120,1248,120,1152,120C1056,120,960,120,864,120C768,120,672,120,576,120C480,120,384,120,288,120C192,120,96,120,48,120L0,120Z"/></svg>