<?xml version="1.0" standalone="no"?>
<svg xmlns:xlink="http://www.w3.org/1999/xlink" id="wave" style="transform:rotate(180deg); transition: 0.3s" viewBox="0 0 1440 160" version="1.1" xmlns="http://www.w3.org/2000/svg"><path style="transform:translate(0, 0px); opacity:1" fill="#F3F6FF" d="M0,128L1440,48L2880,144L4320,64L5760,48L7200,128L8640,112L10080,144L11520,0L12960,80L14400,48L15840,0L17280,112L18720,48L20160,64L21600,80L23040,16L24480,48L25920,64L27360,48L28800,96L30240,48L31680,32L33120,80L34560,96L34560,160L33120,160L31680,160L30240,160L28800,160L27360,160L25920,160L24480,160L23040,160L21600,160L20160,160L18720,160L17280,160L15840,160L14400,160L12960,160L11520,160L10080,160L8640,160L7200,160L5760,160L4320,160L2880,160L1440,160L0,160Z"/></svg>