<svg version="1.1" id="Capa_1" xmlns="http://www.w3.org/2000/svg" x="0" y="0" viewBox="0 0 106.19 125.65" style="enable-background:new 0 0 106.19 125.65" xml:space="preserve"><style>.st0{fill:#e4b69c}</style><path class="st0" d="M9.71 59.57a4.79 4.79 0 1 0-9.53.69s1.98 4.47 3.76 10.92c.92 3.37.64 6.87.06 10.31-.3 1.81.73 3.82 3.1 3.88 5.03.14 2.61-25.8 2.61-25.8zM95.92 59.57a4.79 4.79 0 1 1 9.53.69s-1.98 4.47-3.76 10.92c-.93 3.37-.65 6.87-.07 10.31.3 1.81-.73 3.82-3.1 3.88-5.03.14-2.6-25.8-2.6-25.8z"/><path d="M98.98 63.8c0-18.93-5.23-34.05-15.91-43.27 1.49-4.69-.95-10.8-7.34-10.8-.31 0-.59.04-.89.07-.6-5.07-4.18-9.72-10.77-9.72-6.7 0-10.3 4.82-10.81 10-.12.15-.23.31-.35.45h-.1c-31.2 0-46.17 21.18-46.17 53.27 0 29.75 12.87 54.25 39.62 57.66-.01 1.21.76 2.44 2.33 2.44.45 0 .83-.11 1.15-.28.56.89 1.52 1.49 2.67 1.49h.2c1 0 1.96-.52 2.57-1.31.21.06.42.1.65.1h.2c1.23 0 2.4-1.05 2.4-2.31 27.38-2.96 40.55-27.7 40.55-57.79z" style="fill:#e7c648"/><path d="M85.54 101.45c-13.62 9.95-32.65 14.2-47.35 6.74-14.4-7.3-23.34-20.24-27.4-35.57-2.11-7.94-2.8-22.05-1.29-30.78-1.91 6.52-2.85 13.89-2.85 21.95 0 29.75 12.87 54.25 39.62 57.66-.01 1.21.76 2.44 2.33 2.44.45 0 .83-.11 1.15-.28.56.89 1.52 1.49 2.67 1.49h.2c1 0 1.96-.52 2.57-1.31.21.06.42.1.65.1h.2c1.23 0 2.4-1.05 2.4-2.31 17.47-1.89 29.15-12.66 35.31-28.02-2.36 2.94-5.08 5.61-8.21 7.89z" style="fill:#e5b12a"/></svg>