<svg version="1.1" id="Capa_1" xmlns="http://www.w3.org/2000/svg" x="0" y="0" viewBox="0 0 635.28 722.89" style="enable-background:new 0 0 635.28 722.89" xml:space="preserve"><style>.st0{fill:#fbfbfc}.st1{fill:#434993}.st2{fill:#dec259}.st3{fill:#36a4d5}.st4{fill:#363d71}.st5{fill:#ecd739}.st6{fill:#9ab236}.st9{fill:#fff}.st17{fill:#1e1e78}.st18{fill:#3a3b8b}.st19{fill:#e7cb5f}.st21{fill:#dbdadb}.st22{fill:#ededef}.st24{fill:#2e3689}.st25{fill:#e4b69c}.st26{fill:#e1ac8f}.st27{fill:#3c4591}.st28{fill:#293186}</style><path class="st0" d="M52.86 106.64v-7.86c0-.82-.66-1.48-1.48-1.48H8.75c-.82 0-1.48.66-1.48 1.48v334.99c0 .82.66 1.48 1.48 1.48h197.12c.82 0 1.48-.66 1.48-1.48V109.6c0-.82-.66-1.48-1.48-1.48H54.34c-.82 0-1.48-.66-1.48-1.48z"/><path transform="rotate(90 107.307 271.684)" class="st1" d="M-52.74 175.15h320.1v193.06h-320.1z"/><path class="st2" d="M28.07 121.73h14.48v2.16H28.07zM28.07 210.37h14.48v2.16H28.07zM38.38 134.46h14.48v2.16H38.38z"/><path class="st3" d="M54.26 134.46h14.48v2.16H54.26zM70.14 134.46h35.65v2.16H70.14z"/><path class="st4" d="M28.07 126.8h14.48v2.16H28.07zM54.26 139.25H76.7v2.16H54.26zM77.93 139.25h53.25v2.16H77.93zM132.41 139.25h16.99v2.16h-16.99zM150.62 139.25h20.03v2.16h-20.03zM66.61 144.04h44.32v2.16H66.61zM112.38 144.04h58.28v2.16h-58.28zM54.26 144.04h10.61v2.16H54.26z"/><path class="st2" d="M172.07 144.04h14.48v2.16h-14.48zM38.38 150.71h14.48v2.16H38.38zM38.38 168.39h14.48v2.16H38.38zM54.26 155.51h14.48v2.16H54.26z"/><path class="st3" d="M70.14 155.51h35.65v2.16H70.14zM70.14 178.74h9.33v2.16h-9.33z"/><path class="st4" d="M54.26 160.3H76.7v2.16H54.26zM77.93 160.3h53.25v2.16H77.93zM132.41 160.3h16.99v2.16h-16.99zM150.62 160.3h20.03v2.16h-20.03zM66.61 165.1h44.32v2.16H66.61zM54.26 165.1h10.61v2.16H54.26z"/><path class="st2" d="M112.38 165.1h14.48v2.16h-14.48zM38.38 173.95h14.48v2.16H38.38zM38.38 204.27h14.48v2.16H38.38zM54.26 178.74h14.48v2.16H54.26zM54.26 200.19h14.48v2.16H54.26zM69.47 182.78h5.9v2.16h-5.9z"/><path class="st4" d="M76.53 182.78h8.85v2.16h-8.85zM86.16 182.78h9.81v2.16h-9.81zM96.85 182.78h7.36v2.16h-7.36zM76.53 196.01h8.85v2.16h-8.85zM86.16 196.01h9.81v2.16h-9.81zM96.85 196.01h7.36v2.16h-7.36zM76.53 187.19h8.85v2.16h-8.85zM91.68 187.19h12.52v2.16H91.68zM86.16 187.19h4.82v2.16h-4.82zM76.53 191.6h3.51v2.16h-3.51zM80.91 191.6h4.47v2.16h-4.47zM86.16 191.6h18.04v2.16H86.16z"/><path class="st2" d="M69.47 187.19h5.9v2.16h-5.9zM69.47 191.6h5.9v2.16h-5.9zM69.47 196.01h5.9v2.16h-5.9zM105.38 182.78h5.9v2.16h-5.9zM105.38 187.19h5.9v2.16h-5.9zM105.38 191.6h5.9v2.16h-5.9zM105.38 196.01h5.9v2.16h-5.9z"/><g><path class="st2" d="M28.07 217.22h14.48v2.16H28.07zM38.38 229.94h14.48v2.16H38.38z"/><path class="st3" d="M54.26 229.94h14.48v2.16H54.26zM70.14 229.94h35.65v2.16H70.14z"/><path class="st4" d="M28.07 222.29h14.48v2.16H28.07zM54.26 234.73H76.7v2.16H54.26zM77.93 234.73h53.25v2.16H77.93zM132.41 234.73h16.99v2.16h-16.99zM150.62 234.73h20.03v2.16h-20.03zM66.61 239.53h44.32v2.16H66.61zM112.38 239.53h58.28v2.16h-58.28zM54.26 239.53h10.61v2.16H54.26z"/><path class="st2" d="M172.07 239.53h14.48v2.16h-14.48zM38.38 246.2h14.48v2.16H38.38zM38.38 263.87h14.48v2.16H38.38zM54.26 250.99h14.48v2.16H54.26z"/><path class="st3" d="M70.14 250.99h35.65v2.16H70.14z"/><path class="st4" d="M54.26 255.79H76.7v2.16H54.26zM77.93 255.79h53.25v2.16H77.93zM132.41 255.79h16.99v2.16h-16.99zM150.62 255.79h20.03v2.16h-20.03zM66.61 260.58h44.32v2.16H66.61zM54.26 260.58h10.61v2.16H54.26z"/><path class="st2" d="M112.38 260.58h14.48v2.16h-14.48zM38.38 269.43h14.48v2.16H38.38z"/></g><g><path class="st2" d="M28.07 275.6h14.48v2.16H28.07zM28.07 364.23h14.48v2.16H28.07zM38.38 288.32h14.48v2.16H38.38z"/><path class="st3" d="M54.26 288.32h14.48v2.16H54.26zM70.14 288.32h35.65v2.16H70.14z"/><path class="st4" d="M28.07 280.67h14.48v2.16H28.07zM54.26 293.12H76.7v2.16H54.26zM77.93 293.12h53.25v2.16H77.93zM132.41 293.12h16.99v2.16h-16.99zM150.62 293.12h20.03v2.16h-20.03zM66.61 297.91h44.32v2.16H66.61zM112.38 297.91h58.28v2.16h-58.28zM54.26 297.91h10.61v2.16H54.26z"/><path class="st2" d="M172.07 297.91h14.48v2.16h-14.48zM38.38 304.58h14.48v2.16H38.38zM38.38 322.25h14.48v2.16H38.38zM54.26 309.37h14.48v2.16H54.26z"/><path class="st3" d="M70.14 309.37h35.65v2.16H70.14zM70.14 332.61h9.33v2.16h-9.33z"/><path class="st4" d="M54.26 314.17H76.7v2.16H54.26zM77.93 314.17h53.25v2.16H77.93zM132.41 314.17h16.99v2.16h-16.99zM150.62 314.17h20.03v2.16h-20.03zM66.61 318.96h44.32v2.16H66.61zM54.26 318.96h10.61v2.16H54.26z"/><path class="st2" d="M112.38 318.96h14.48v2.16h-14.48zM38.38 327.81h14.48v2.16H38.38zM38.38 358.13h14.48v2.16H38.38zM54.26 332.61h14.48v2.16H54.26zM54.26 354.06h14.48v2.16H54.26zM69.47 336.65h5.9v2.16h-5.9z"/><path class="st4" d="M76.53 336.65h8.85v2.16h-8.85zM86.16 336.65h9.81v2.16h-9.81zM96.85 336.65h7.36v2.16h-7.36zM76.53 349.88h8.85v2.16h-8.85zM86.16 349.88h9.81v2.16h-9.81zM96.85 349.88h7.36v2.16h-7.36zM76.53 341.06h8.85v2.16h-8.85zM91.68 341.06h12.52v2.16H91.68zM86.16 341.06h4.82v2.16h-4.82zM76.53 345.47h3.51v2.16h-3.51zM80.91 345.47h4.47v2.16h-4.47zM86.16 345.47h18.04v2.16H86.16z"/><path class="st2" d="M69.47 341.06h5.9v2.16h-5.9zM69.47 345.47h5.9v2.16h-5.9zM69.47 349.88h5.9v2.16h-5.9zM105.38 336.65h5.9v2.16h-5.9zM105.38 341.06h5.9v2.16h-5.9zM105.38 345.47h5.9v2.16h-5.9zM105.38 349.88h5.9v2.16h-5.9z"/><g><path class="st2" d="M28.07 371.08h14.48v2.16H28.07zM38.38 383.81h14.48v2.16H38.38z"/><path class="st3" d="M54.26 383.81h14.48v2.16H54.26zM70.14 383.81h35.65v2.16H70.14z"/><path class="st4" d="M28.07 376.15h14.48v2.16H28.07zM54.26 388.6H76.7v2.16H54.26zM77.93 388.6h53.25v2.16H77.93zM132.41 388.6h16.99v2.16h-16.99zM150.62 388.6h20.03v2.16h-20.03zM66.61 393.4h44.32v2.16H66.61zM112.38 393.4h58.28v2.16h-58.28zM54.26 393.4h10.61v2.16H54.26z"/><path class="st2" d="M172.07 393.4h14.48v2.16h-14.48zM38.38 400.06h14.48v2.16H38.38zM38.38 417.74h14.48v2.16H38.38zM54.26 404.86h14.48v2.16H54.26z"/><path class="st3" d="M70.14 404.86h35.65v2.16H70.14z"/><path class="st4" d="M54.26 409.65H76.7v2.16H54.26zM77.93 409.65h53.25v2.16H77.93zM132.41 409.65h16.99v2.16h-16.99zM150.62 409.65h20.03v2.16h-20.03zM66.61 414.45h44.32v2.16H66.61zM54.26 414.45h10.61v2.16H54.26z"/><path class="st2" d="M112.38 414.45h14.48v2.16h-14.48zM38.38 423.3h14.48v2.16H38.38z"/></g></g><g><circle class="st2" cx="14.44" cy="104.41" r="1.58"/><circle class="st5" cx="20.46" cy="104.41" r="1.58"/><path class="st6" d="M24.91 104.41c0-.87.71-1.58 1.58-1.58.87 0 1.58.71 1.58 1.58 0 .87-.71 1.58-1.58 1.58-.87 0-1.58-.71-1.58-1.58z"/></g><g><path class="st0" d="M204.05 18.61V8.64c0-1.04-.84-1.88-1.88-1.88h-54.05c-1.04 0-1.88.84-1.88 1.88v424.73c0 1.04.84 1.88 1.88 1.88h249.93c1.04 0 1.88-.84 1.88-1.88v-411c0-1.04-.84-1.88-1.88-1.88H205.93c-1.04 0-1.88-.84-1.88-1.88z"/><path transform="rotate(90 273.09 227.868)" style="fill:#132158" d="M70.16 105.48h405.85v244.78H70.16z"/><path class="st2" d="M172.63 37.74h18.35v2.74h-18.35zM172.63 150.13h18.35v2.74h-18.35zM185.7 53.88h18.35v2.74H185.7z"/><path class="st3" d="M205.83 53.88h18.35v2.74h-18.35zM225.97 53.88h45.2v2.74h-45.2z"/><path class="st4" d="M172.63 44.18h18.35v2.74h-18.35zM205.83 59.96h28.46v2.74h-28.46zM235.85 59.96h67.51v2.74h-67.51zM304.91 59.96h21.54v2.74h-21.54zM328.01 59.96h25.4v2.74h-25.4zM221.48 66.04h56.19v2.74h-56.19zM279.52 66.04h73.89v2.74h-73.89zM205.83 66.04h13.45v2.74h-13.45z"/><path class="st2" d="M355.2 66.04h18.35v2.74H355.2zM185.7 74.49h18.35v2.74H185.7zM185.7 96.9h18.35v2.74H185.7zM205.83 80.57h18.35v2.74h-18.35z"/><path class="st3" d="M225.97 80.57h45.2v2.74h-45.2zM225.97 110.03h11.83v2.74h-11.83z"/><path class="st4" d="M205.83 86.65h28.46v2.74h-28.46zM235.85 86.65h67.51v2.74h-67.51zM304.91 86.65h21.54v2.74h-21.54zM328.01 86.65h25.4v2.74h-25.4zM221.48 92.73h56.19v2.74h-56.19zM205.83 92.73h13.45v2.74h-13.45z"/><path class="st2" d="M279.52 92.73h18.35v2.74h-18.35zM185.7 103.95h18.35v2.74H185.7zM185.7 142.39h18.35v2.74H185.7zM205.83 110.03h18.35v2.74h-18.35zM205.83 137.22h18.35v2.74h-18.35zM225.11 115.15h7.47v2.74h-7.47z"/><path class="st4" d="M234.06 115.15h11.22v2.74h-11.22zM246.28 115.15h12.44v2.74h-12.44zM259.83 115.15h9.33v2.74h-9.33zM234.06 131.92h11.22v2.74h-11.22zM246.28 131.92h12.44v2.74h-12.44zM259.83 131.92h9.33v2.74h-9.33zM234.06 120.74h11.22v2.74h-11.22zM253.28 120.74h15.88v2.74h-15.88zM246.28 120.74h6.11v2.74h-6.11zM234.06 126.33h4.45v2.74h-4.45zM239.62 126.33h5.66v2.74h-5.66zM246.28 126.33h22.87v2.74h-22.87z"/><path class="st2" d="M225.11 120.74h7.47v2.74h-7.47zM225.11 126.33h7.47v2.74h-7.47zM225.11 131.92h7.47v2.74h-7.47zM270.64 115.15h7.47v2.74h-7.47zM270.64 120.74h7.47v2.74h-7.47zM270.64 126.33h7.47v2.74h-7.47zM270.64 131.92h7.47v2.74h-7.47z"/><g><path class="st2" d="M172.63 158.81h18.35v2.74h-18.35zM185.7 174.94h18.35v2.74H185.7z"/><path class="st3" d="M205.83 174.94h18.35v2.74h-18.35zM225.97 174.94h45.2v2.74h-45.2z"/><path class="st4" d="M172.63 165.24h18.35v2.74h-18.35zM205.83 181.02h28.46v2.74h-28.46zM235.85 181.02h67.51v2.74h-67.51zM304.91 181.02h21.54v2.74h-21.54zM328.01 181.02h25.4v2.74h-25.4zM221.48 187.1h56.19v2.74h-56.19zM279.52 187.1h73.89v2.74h-73.89zM205.83 187.1h13.45v2.74h-13.45z"/><path class="st2" d="M355.2 187.1h18.35v2.74H355.2zM185.7 195.56h18.35v2.74H185.7zM185.7 217.96h18.35v2.74H185.7zM205.83 201.63h18.35v2.74h-18.35z"/><path class="st3" d="M225.97 201.63h45.2v2.74h-45.2z"/><path class="st4" d="M205.83 207.71h28.46v2.74h-28.46zM235.85 207.71h67.51v2.74h-67.51zM304.91 207.71h21.54v2.74h-21.54zM328.01 207.71h25.4v2.74h-25.4zM221.48 213.79h56.19v2.74h-56.19zM205.83 213.79h13.45v2.74h-13.45z"/><path class="st2" d="M279.52 213.79h18.35v2.74h-18.35zM185.7 225.01h18.35v2.74H185.7z"/></g><g><path class="st2" d="M172.63 232.83h18.35v2.74h-18.35zM172.63 345.21h18.35v2.74h-18.35zM185.7 248.96h18.35v2.74H185.7z"/><path class="st3" d="M205.83 248.96h18.35v2.74h-18.35zM225.97 248.96h45.2v2.74h-45.2z"/><path class="st4" d="M172.63 239.26h18.35V242h-18.35zM205.83 255.04h28.46v2.74h-28.46zM235.85 255.04h67.51v2.74h-67.51zM304.91 255.04h21.54v2.74h-21.54zM328.01 255.04h25.4v2.74h-25.4zM221.48 261.12h56.19v2.74h-56.19zM279.52 261.12h73.89v2.74h-73.89zM205.83 261.12h13.45v2.74h-13.45z"/><path class="st2" d="M355.2 261.12h18.35v2.74H355.2zM185.7 269.58h18.35v2.74H185.7zM185.7 291.98h18.35v2.74H185.7zM205.83 275.65h18.35v2.74h-18.35z"/><path class="st3" d="M225.97 275.65h45.2v2.74h-45.2zM225.97 305.11h11.83v2.74h-11.83z"/><path class="st4" d="M205.83 281.73h28.46v2.74h-28.46zM235.85 281.73h67.51v2.74h-67.51zM304.91 281.73h21.54v2.74h-21.54zM328.01 281.73h25.4v2.74h-25.4zM221.48 287.81h56.19v2.74h-56.19zM205.83 287.81h13.45v2.74h-13.45z"/><path class="st2" d="M279.52 287.81h18.35v2.74h-18.35zM185.7 299.03h18.35v2.74H185.7zM185.7 337.47h18.35v2.74H185.7zM205.83 305.11h18.35v2.74h-18.35zM205.83 332.31h18.35v2.74h-18.35zM225.11 310.24h7.47v2.74h-7.47z"/><path class="st4" d="M234.06 310.24h11.22v2.74h-11.22zM246.28 310.24h12.44v2.74h-12.44zM259.83 310.24h9.33v2.74h-9.33zM234.06 327.01h11.22v2.74h-11.22zM246.28 327.01h12.44v2.74h-12.44zM259.83 327.01h9.33v2.74h-9.33zM234.06 315.83h11.22v2.74h-11.22zM253.28 315.83h15.88v2.74h-15.88zM246.28 315.83h6.11v2.74h-6.11zM234.06 321.42h4.45v2.74h-4.45zM239.62 321.42h5.66v2.74h-5.66zM246.28 321.42h22.87v2.74h-22.87z"/><path class="st2" d="M225.11 315.83h7.47v2.74h-7.47zM225.11 321.42h7.47v2.74h-7.47zM225.11 327.01h7.47v2.74h-7.47zM270.64 310.24h7.47v2.74h-7.47zM270.64 315.83h7.47v2.74h-7.47zM270.64 321.42h7.47v2.74h-7.47zM270.64 327.01h7.47v2.74h-7.47z"/><g><path class="st2" d="M172.63 353.89h18.35v2.74h-18.35zM185.7 370.03h18.35v2.74H185.7z"/><path class="st3" d="M205.83 370.03h18.35v2.74h-18.35zM225.97 370.03h45.2v2.74h-45.2z"/><path class="st4" d="M172.63 360.32h18.35v2.74h-18.35zM205.83 376.11h28.46v2.74h-28.46zM235.85 376.11h67.51v2.74h-67.51zM304.91 376.11h21.54v2.74h-21.54zM328.01 376.11h25.4v2.74h-25.4zM221.48 382.18h56.19v2.74h-56.19zM279.52 382.18h73.89v2.74h-73.89zM205.83 382.18h13.45v2.74h-13.45z"/><path class="st2" d="M355.2 382.18h18.35v2.74H355.2zM185.7 390.64h18.35v2.74H185.7zM185.7 413.05h18.35v2.74H185.7zM205.83 396.72h18.35v2.74h-18.35z"/><path class="st3" d="M225.97 396.72h45.2v2.74h-45.2z"/><path class="st4" d="M205.83 402.8h28.46v2.74h-28.46zM235.85 402.8h67.51v2.74h-67.51zM304.91 402.8h21.54v2.74h-21.54zM328.01 402.8h25.4v2.74h-25.4zM221.48 408.88h56.19v2.74h-56.19zM205.83 408.88h13.45v2.74h-13.45z"/><path class="st2" d="M279.52 408.88h18.35v2.74h-18.35zM185.7 420.1h18.35v2.74H185.7z"/></g></g><g><path class="st2" d="M153.33 15.78a2 2 0 1 1 3.999-.001 2 2 0 0 1-3.999.001z"/><path class="st5" d="M160.98 15.78a2 2 0 1 1 3.999-.001 2 2 0 0 1-3.999.001z"/><path class="st6" d="M168.62 15.78a2 2 0 1 1 3.999-.001 2 2 0 0 1-3.999.001z"/></g></g><g><path class="st0" d="M495.22 149.5H342.44c-.91 0-1.64-.74-1.64-1.64V82.95c0-.91.74-1.64 1.64-1.64h152.78c.91 0 1.64.74 1.64 1.64v64.91c0 .91-.73 1.64-1.64 1.64z"/><path transform="rotate(90 418.83 119.858)" class="st3" d="M399.65 52.3H438v135.13h-38.35z"/><path class="st2" d="M351.27 91.72a3.16 3.16 0 1 1 6.32 0 3.16 3.16 0 0 1-6.32 0z"/><path class="st5" d="M363.31 91.72a3.16 3.16 0 1 1 6.32 0 3.16 3.16 0 0 1-6.32 0z"/><path class="st6" d="M375.34 91.72a3.16 3.16 0 1 1 6.32 0 3.16 3.16 0 0 1-6.32 0z"/><path style="fill:#6da9be" d="M442.09 90.14h44.3v3.16h-44.3z"/><text transform="translate(370.428 123.706)" class="st9" style="font-size:12.6469px;font-family:'Candara-Bold'">&lt;!DOCTYPE html&gt;</text></g><g><path class="st3" d="M619.61 167.72H512.5c-.85 0-1.53-.69-1.53-1.53v-31.87c0-.85.69-1.53 1.53-1.53h107.11c.85 0 1.53.69 1.53 1.53v31.87c.01.84-.68 1.53-1.53 1.53z"/><text transform="translate(529.575 155.203)" class="st9" style="font-size:15.7354px;font-family:'Candara'">&lt;div&gt;&lt;/div&gt;</text></g><g><path class="st9" d="M477.57 40.6c-.12 0-.24.01-.36.02-1.4-6.09-6.84-10.64-13.36-10.64-1.24 0-2.44.18-3.58.49-3.02-6.43-9.54-10.88-17.11-10.88-9.69 0-17.66 7.28-18.77 16.67-6.13 1.37-10.71 6.84-10.71 13.38 0 7.58 6.14 13.72 13.72 13.72h50.18c6.28 0 11.38-5.1 11.38-11.38s-5.11-11.38-11.39-11.38z"/></g><g><path d="M618.84 405.12H363.79c-.41 0-.74-.33-.74-.74V226.9c0-2.21 1.79-4 4-4h248.54c2.21 0 4 1.79 4 4v177.47c-.01.41-.34.75-.75.75z" style="fill:#f8f8f9"/><path transform="rotate(90 491.312 314.01)" style="fill:#f8f7f6" d="M409.24 194.77h164.14v238.47H409.24z"/><path transform="rotate(90 448.118 314.01)" class="st9" d="M366.05 237.97h164.14v152.08H366.05z"/><path transform="rotate(90 448.118 238.341)" class="st2" d="M441.71 162.3h12.81v152.08h-12.81z"/><path transform="rotate(90 448.118 345.103)" class="st1" d="M397.14 269.06H499.1v152.08H397.14z"/><path transform="rotate(90 448.118 367.535)" class="st9" d="M419.57 291.49h57.09v152.08h-57.09z"/><path transform="rotate(90 567.353 314.01)" class="st3" d="M485.28 270.82h164.14v86.39H485.28z"/><g><path d="M491.31 229.52a1.52 1.52 0 1 1-.001-3.039 1.52 1.52 0 0 1 .001 3.039zm0-2.13c-.34 0-.61.27-.61.61 0 .34.27.61.61.61.34 0 .61-.27.61-.61a.606.606 0 0 0-.61-.61z" style="fill:#d7d8db"/></g><g><path class="st9" d="M549.24 246.83h16.88v1.81h-16.88zM549.24 250.73h24.45v1.81h-24.45zM549.24 254.62h16.88v1.81h-16.88zM549.24 258.52h24.45v1.81h-24.45z"/><path class="st17" d="M537.33 242.94h25.74v1.81h-25.74z"/><path class="st2" d="M537.33 246.83h10.11v1.81h-10.11zM537.33 250.73h10.11v1.81h-10.11zM537.33 254.62h10.11v1.81h-10.11zM537.33 258.52h10.11v1.81h-10.11z"/><path class="st17" d="M534.45 243.84c0-.5.4-.9.9-.9s.9.4.9.9-.4.9-.9.9-.9-.4-.9-.9z"/><g><path class="st9" d="M549.24 272.43h16.88v1.81h-16.88zM549.24 276.32h24.45v1.81h-24.45zM549.24 280.22h16.88v1.81h-16.88zM549.24 284.11h24.45v1.81h-24.45z"/><g><path class="st18" d="M537.33 268.53h25.74v1.81h-25.74z"/><path class="st2" d="M537.33 272.43h10.11v1.81h-10.11zM537.33 276.32h10.11v1.81h-10.11zM537.33 280.22h10.11v1.81h-10.11zM537.33 284.11h10.11v1.81h-10.11z"/><path class="st18" d="M534.45 269.43c0-.5.4-.9.9-.9s.9.4.9.9-.4.9-.9.9c-.5.01-.9-.4-.9-.9z"/></g></g><g><path class="st9" d="M549.24 298.02h16.88v1.81h-16.88zM549.24 301.92h24.45v1.81h-24.45zM549.24 305.81h16.88v1.81h-16.88zM549.24 309.71h24.45v1.81h-24.45z"/><g><path class="st18" d="M537.33 294.12h25.74v1.81h-25.74z"/><path class="st2" d="M537.33 298.02h10.11v1.81h-10.11zM537.33 301.92h10.11v1.81h-10.11zM537.33 305.81h10.11v1.81h-10.11zM537.33 309.71h10.11v1.81h-10.11z"/><path class="st18" d="M534.45 295.03c0-.5.4-.9.9-.9s.9.4.9.9-.4.9-.9.9-.9-.4-.9-.9z"/></g></g><g><path class="st9" d="M549.24 323.61h16.88v1.81h-16.88zM549.24 327.51h24.45v1.81h-24.45zM549.24 331.4h16.88v1.81h-16.88zM549.24 335.3h24.45v1.81h-24.45z"/><g><path class="st17" d="M537.33 319.72h25.74v1.81h-25.74z"/><path class="st2" d="M537.33 323.61h10.11v1.81h-10.11zM537.33 327.51h10.11v1.81h-10.11zM537.33 331.4h10.11v1.81h-10.11zM537.33 335.3h10.11v1.81h-10.11z"/><path class="st17" d="M534.45 320.62c0-.5.4-.9.9-.9s.9.4.9.9-.4.9-.9.9-.9-.4-.9-.9z"/></g></g><g><path class="st9" d="M549.24 349.21h16.88v1.81h-16.88zM549.24 353.1h24.45v1.81h-24.45zM549.24 357h16.88v1.81h-16.88zM549.24 360.89h24.45v1.81h-24.45z"/><g><path class="st17" d="M537.33 345.31h25.74v1.81h-25.74z"/><path class="st2" d="M537.33 349.21h10.11v1.81h-10.11zM537.33 353.1h10.11v1.81h-10.11zM537.33 357h10.11v1.81h-10.11zM537.33 360.89h10.11v1.81h-10.11z"/><path class="st17" d="M534.45 346.21c0-.5.4-.9.9-.9s.9.4.9.9-.4.9-.9.9c-.5.01-.9-.4-.9-.9z"/></g></g><g><path class="st9" d="M549.24 374.8h16.88v1.81h-16.88zM549.24 378.7h24.45v1.81h-24.45zM549.24 382.59h16.88v1.81h-16.88zM549.24 386.49h24.45v1.81h-24.45z"/><g><path class="st18" d="M537.33 370.9h25.74v1.81h-25.74z"/><path class="st2" d="M537.33 374.8h10.11v1.81h-10.11zM537.33 378.7h10.11v1.81h-10.11zM537.33 382.59h10.11v1.81h-10.11zM537.33 386.49h10.11v1.81h-10.11z"/><path class="st18" d="M534.45 371.81c0-.5.4-.9.9-.9s.9.4.9.9-.4.9-.9.9-.9-.4-.9-.9z"/></g></g></g><g><path class="st9" d="M512.15 236.53h4.63v.68h-4.63zM512.15 238h4.63v.68h-4.63zM512.15 239.47h4.63v.68h-4.63z"/></g><g><path class="st19" d="M386.25 236.53h20.77v3.61h-20.77zM418.02 236.53h20.77v3.61h-20.77zM449.79 236.53h20.77v3.61h-20.77zM481.55 236.53h20.77v3.61h-20.77z"/></g><linearGradient id="SVGID_1_" gradientUnits="userSpaceOnUse" x1="363.044" y1="294.51" x2="442.797" y2="294.51"><stop offset="0" style="stop-color:#fff;stop-opacity:.2"/><stop offset="1" style="stop-color:#fff"/></linearGradient><path d="M442.8 222.91h-72.76a6.99 6.99 0 0 0-6.99 6.99v136.22l79.75-143.21z" style="opacity:.28;fill:url(#SVGID_1_)"/><g><path class="st21" d="M390.62 370.9h27.85v.9h-27.85zM390.62 374.35h27.85v.9h-27.85zM390.62 377.79h27.85v.9h-27.85zM390.62 381.24h27.85v.9h-27.85zM390.62 384.68h27.85v.9h-27.85zM390.62 388.12h27.85v.9h-27.85zM434.19 370.9h27.85v.9h-27.85zM434.19 374.35h27.85v.9h-27.85zM434.19 377.79h27.85v.9h-27.85zM434.19 381.24h27.85v.9h-27.85zM434.19 384.68h27.85v.9h-27.85zM434.19 388.12h27.85v.9h-27.85z"/><g><path class="st21" d="M477.76 370.9h27.85v.9h-27.85zM477.76 374.35h27.85v.9h-27.85zM477.76 377.79h27.85v.9h-27.85zM477.76 381.24h27.85v.9h-27.85zM477.76 384.68h27.85v.9h-27.85zM477.76 388.12h27.85v.9h-27.85z"/></g><g><path class="st22" d="M402.71 284.11h90.82v6.02h-90.82z"/><path class="st2" d="M485.99 284.11h7.54v6.02h-7.54z"/><g><path class="st9" d="m491.53 288.5-.63-.63c.17-.26.28-.56.28-.9 0-.88-.72-1.6-1.6-1.6s-1.6.72-1.6 1.6c0 .88.72 1.6 1.6 1.6.36 0 .7-.13.97-.33l.62.62.36-.36zm-1.95-.43c-.6 0-1.09-.49-1.09-1.09 0-.6.49-1.09 1.09-1.09.6 0 1.09.49 1.09 1.09 0 .6-.49 1.09-1.09 1.09z"/><path style="fill:#bebebf" d="M404.88 285.35h.4v3.56h-.4z"/></g></g><g><path class="st21" d="M390.62 303.41h51.49v1.81h-51.49zM390.62 308.21h51.49v1.81h-51.49zM390.62 313.01h51.49v1.81h-51.49zM390.62 317.81h51.49v1.81h-51.49zM390.62 322.61h51.49v1.81h-51.49zM390.62 327.41h51.49v1.81h-51.49z"/></g><g><path class="st3" d="M452.64 303.41h52.97v25.9h-52.97z"/><path class="st2" d="M499.81 323.51h5.81v5.81h-5.81z"/><path class="st22" d="M504.25 326.3h-1.43v-1.43h-.23v1.43h-1.42v.23h1.42v1.43h.23v-1.43h1.43z"/></g><path class="st9" d="m504.25 328.54 1.47 4.34 1.16-1.16 1.49 1.49.55-.54-1.5-1.5 1.17-1.16z"/><g><circle class="st2" cx="448.12" cy="354.91" r="9.6"/><path class="st9" d="m452.06 358.67-.33-.53c.26-.29.48-.61.66-.95l.61.14c.26.06.52-.11.57-.37l.36-1.62a.474.474 0 0 0-.37-.57l-.61-.13c-.02-.38-.09-.76-.2-1.14l.53-.33c.22-.14.29-.44.15-.66l-.89-1.4a.483.483 0 0 0-.66-.15l-.53.33c-.29-.26-.61-.48-.95-.66l.14-.61a.474.474 0 0 0-.37-.57l-1.62-.36a.474.474 0 0 0-.57.37l-.14.61c-.38.02-.76.09-1.14.2l-.33-.53a.483.483 0 0 0-.66-.15l-1.4.89c-.22.14-.29.44-.15.66l.33.53c-.26.29-.48.61-.66.95l-.61-.13a.474.474 0 0 0-.57.37l-.36 1.62c-.06.26.11.52.37.57l.61.13c.02.38.09.76.2 1.14l-.53.33c-.22.14-.29.44-.15.66l.89 1.4c.14.22.44.29.66.15l.53-.33c.29.26.61.48.95.66l-.13.61c-.06.26.11.52.37.57l1.62.36c.26.06.52-.11.57-.37l.13-.61c.38-.02.76-.09 1.14-.2l.33.53c.14.22.44.29.66.15l1.4-.89c.23-.15.3-.45.15-.67zm-6.57-2.09a3.11 3.11 0 0 1 .96-4.3c1.45-.92 3.38-.5 4.3.96s.5 3.38-.96 4.3-3.38.5-4.3-.96z"/><path class="st9" d="M449.22 354.21a1.31 1.31 0 1 0-2.21 1.41 1.31 1.31 0 0 0 2.21-1.41z"/></g><g><path class="st17" d="M394.95 354.79c0-5.3 4.3-9.6 9.6-9.6s9.6 4.3 9.6 9.6-4.3 9.6-9.6 9.6-9.6-4.3-9.6-9.6z"/><path class="st9" d="M404.89 360.1c-.82.22-1.55-.51-1.33-1.33.1-.36.39-.65.75-.75.82-.22 1.55.51 1.33 1.33-.1.36-.39.65-.75.75zM402.47 356.99c-.44-.44-.31-1.21.27-1.45a4.723 4.723 0 0 1 3.54-.07c.61.23.79 1.01.33 1.47l-.01.01a.87.87 0 0 1-.94.2c-.34-.13-.69-.2-1.05-.2-.39 0-.78.08-1.14.23a.92.92 0 0 1-1-.19z"/><path class="st9" d="M400.4 354.92a.89.89 0 0 1 .16-1.39c1.21-.77 2.6-1.17 4.04-1.17 1.4 0 2.77.39 3.95 1.11.49.3.55.98.15 1.39l-.01.01a.88.88 0 0 1-1.08.14 5.8 5.8 0 0 0-3.01-.85c-1.1 0-2.17.31-3.09.9a.94.94 0 0 1-1.11-.14z"/><path class="st9" d="M398.31 352.83a.9.9 0 0 1 .1-1.36c1.79-1.32 3.95-2.03 6.18-2.03 2.2 0 4.31.68 6.08 1.95.45.32.5.97.11 1.36l-.01.01c-.31.31-.8.34-1.17.08a8.64 8.64 0 0 0-5.02-1.6c-1.85 0-3.63.59-5.11 1.66-.34.27-.84.25-1.16-.07z"/></g><g><circle class="st18" cx="491.69" cy="354.91" r="9.6"/><path class="st9" d="M491.75 349.36c-3.02 0-5.48 2.46-5.48 5.48 0 .92.23 1.83.68 2.64 0 0-.49 1.85-.59 2.22-.04.15-.1.39-.12.55-.01.08.02.23.17.2.15-.02.35-.1.38-.11l2.14-.81a5.488 5.488 0 0 0 8.31-4.7 5.501 5.501 0 0 0-5.49-5.47zm-2.87 6.37c-.46 0-.83-.37-.83-.83 0-.46.37-.83.83-.83.46 0 .83.37.83.83-.01.46-.38.83-.83.83zm2.85 0c-.46 0-.83-.37-.83-.83 0-.46.37-.83.83-.83.46 0 .83.37.83.83 0 .46-.37.83-.83.83zm2.85 0c-.46 0-.83-.37-.83-.83 0-.46.37-.83.83-.83.46 0 .83.37.83.83 0 .46-.37.83-.83.83z"/></g></g></g><g><path class="st24" d="M303.97 700.05a22.433 22.433 0 0 1-14.42 5.14l-4.24-.03-.51-16.17h18.9c2.89 0 5.33 1.97 6.03 4.65.22.84-.12 1.74-.8 2.29l-4.96 4.12zM325.49 700.19c4.05 3.35 9.16 5.17 14.42 5.14l4.24-.03.51-16.17h-18.9c-2.89 0-5.33 1.97-6.03 4.65-.22.84.12 1.74.8 2.29l4.96 4.12z"/></g><path class="st9" d="M1.45 427.67H627v12.86H1.45z"/><g><path class="st24" d="M290.69 705.28h-12.77a2.96 2.96 0 0 1-2.96-2.96v-7.29h18.69v7.29c0 1.64-1.32 2.96-2.96 2.96z"/><path class="st1" d="M296.46 695.43h-23.04l-18.23-194.86h41.27z"/><g><path class="st24" d="M349.25 705.28h-12.77a2.96 2.96 0 0 1-2.96-2.96v-7.29h18.69v7.29a2.96 2.96 0 0 1-2.96 2.96z"/><path class="st1" d="M355.02 695.43h-23.05V500.57h41.28z"/></g></g><path class="st25" d="M293.05 250.24h42.35v39.13h-42.35z"/><g><path class="st26" d="M203.73 434.16h-15.27v-14.18c0-4.83 3.91-8.74 8.74-8.74h6.54v22.92z"/><path class="st25" d="m215 360.84-25.99 70.74c-.96 2.62-.8 5.53.45 8.02l2.11 4.22c2.09 4.19 6.78 6.39 11.34 5.34a22.929 22.929 0 0 0 16.36-14.43l23.22-63.2L215 360.84z"/><path class="st26" d="M424.71 434.16h15.27v-7.64c0-8.44-6.84-15.27-15.27-15.27v22.91z"/><path class="st25" d="m413.44 360.84 25.99 70.74c.96 2.62.8 5.53-.45 8.02l-2.11 4.22a10.127 10.127 0 0 1-11.34 5.34 22.929 22.929 0 0 1-16.36-14.43l-23.22-63.2 27.49-10.69z"/><path class="st1" d="M251.57 465.86c.27 22.27-1.63 45.03 7.28 53.2 20.4 18.71 90.33 18.71 110.73 0 8.91-8.17 7.01-30.93 7.28-53.2H251.57z"/><path class="st3" d="M368.43 291.73c-11.29-5.9-23.91-8.79-36.65-8.79h-35.07c-13.4 0-26.62 3.24-38.37 9.68-18.3 10.03-41.09 30.19-52.68 70.31l44.08 17.96s-10.34 87.36 9.12 105.21c20.4 18.71 90.33 18.71 110.73 0 19.46-17.84 9.12-105.21 9.12-105.21l44.08-17.96c-11.96-41.35-35.8-61.5-54.36-71.2z"/></g><g><path class="st27" d="M411.2 531.47c-.01-.1-.01-.21-.02-.31-.74-11.7-11.49-20.16-23.13-18.87l-21.46 2.38a473.909 473.909 0 0 1-104.74 0l-21.46-2.38c-11.65-1.29-22.4 7.17-23.13 18.87-.01.1-.01.21-.02.31-.28 5.75 4.45 10.51 10.21 10.51H401c5.75 0 10.48-4.76 10.2-10.51zM314.22 494.87c-36.96 0-67.6-19.67-70.12-56.55l-6-88.01-.03-.55c-1.28-23.26 17.25-42.89 40.61-42.89h71.08c23.55 0 42.18 19.94 40.58 43.44l-6 88.01c-2.52 36.87-33.16 56.55-70.12 56.55z"/><path class="st28" d="M314.22 485.91c-56.7 0-70.12-47.59-70.12-47.59 2.51 36.87 33.16 56.55 70.12 56.55 36.96 0 67.6-19.67 70.12-56.55 0 0-14.91 47.59-70.12 47.59z"/><path class="st3" d="M332.93 392.29H295.5c-4.32 0-7.82-3.5-7.82-7.82v-11.7c0-4.32 3.5-7.82 7.82-7.82h37.43c4.32 0 7.82 3.5 7.82 7.82v11.7c0 4.32-3.5 7.82-7.82 7.82z"/><path class="st24" d="M314.22 577.22c-6.66 0-12.06-5.4-12.06-12.06V375.78a4.4 4.4 0 0 1 4.4-4.4h15.32a4.4 4.4 0 0 1 4.4 4.4v189.38c0 6.66-5.4 12.06-12.06 12.06z"/><path class="st24" d="M385.78 557.66H242.66c-8.88 0-16.08-7.2-16.08-16.08h175.28c0 8.88-7.2 16.08-16.08 16.08z"/><path class="st28" d="M347.18 567.31h-65.93a9.65 9.65 0 0 1-9.65-9.65h85.23a9.65 9.65 0 0 1-9.65 9.65z"/><path class="st24" d="M309.39 572.4h9.65v115h-9.65z"/><g><path class="st24" d="M260.35 697.04a9.65 9.65 0 0 1-9.65 9.65 9.65 9.65 0 0 1-9.65-9.65 9.65 9.65 0 0 1 9.65-9.65 9.65 9.65 0 0 1 9.65 9.65z"/><path class="st27" d="M255.52 697.04c0 2.66-2.16 4.82-4.82 4.82s-4.82-2.16-4.82-4.82 2.16-4.82 4.82-4.82 4.82 2.16 4.82 4.82z"/><path class="st24" d="M310.2 687.39v-13.94l-65.57 9.37a2.294 2.294 0 0 0-1.97 2.27 2.3 2.3 0 0 0 2.3 2.3h65.24zM368.09 697.04c0 5.33 4.32 9.65 9.65 9.65s9.65-4.32 9.65-9.65-4.32-9.65-9.65-9.65-9.65 4.32-9.65 9.65z"/><circle class="st27" cx="377.74" cy="697.04" r="4.82"/><path class="st24" d="M318.24 687.39v-13.94l65.57 9.37c1.13.16 1.97 1.13 1.97 2.27a2.3 2.3 0 0 1-2.3 2.3h-65.24zM316.63 700.26h-6.43l-1.61-24.12h9.65z"/><path class="st27" d="M313.41 717.95a4.5 4.5 0 0 1-4.5-4.5v-13.51a4.5 4.5 0 0 1 9 0v13.51c.01 2.48-2.01 4.5-4.5 4.5z"/></g></g></svg>