<svg version="1.1" id="Capa_1" xmlns="http://www.w3.org/2000/svg" x="0" y="0" viewBox="0 0 54.35 54.13" style="enable-background:new 0 0 54.35 54.13" xml:space="preserve"><style>.st0{fill:#fff}</style><path class="st0" d="M53.37 23.56h-3.14c-.26-1.69-.7-3.33-1.3-4.88l2.71-1.56c.35-.2.47-.64.27-.99l-2.84-4.91a.723.723 0 0 0-.99-.27l-2.7 1.56a23.306 23.306 0 0 0-3.58-3.58l1.56-2.7c.2-.35.08-.79-.27-.99L38.18 2.4a.723.723 0 0 0-.99.27l-1.56 2.71c-1.55-.6-3.19-1.04-4.88-1.3V.94c0-.4-.32-.73-.73-.73h-5.67c-.4 0-.73.32-.73.73v3.14c-1.69.26-3.33.7-4.88 1.3l-1.56-2.71a.723.723 0 0 0-.99-.27l-4.91 2.84c-.36.2-.48.64-.28.99l1.56 2.7a23.306 23.306 0 0 0-3.58 3.58l-2.7-1.56a.723.723 0 0 0-.99.27l-2.84 4.91c-.2.35-.08.79.27.99l2.71 1.56c-.6 1.55-1.04 3.19-1.3 4.88H1c-.4 0-.73.33-.73.73v5.67c0 .4.33.73.73.73h3.14c.26 1.69.7 3.33 1.3 4.88l-2.71 1.56c-.35.2-.47.64-.27.99l2.84 4.91c.2.35.64.47.99.27l2.7-1.56c1.06 1.32 2.26 2.52 3.58 3.58L11 48.02c-.2.35-.08.79.27.99l4.91 2.84c.35.2.79.08.99-.27l1.56-2.71c1.55.6 3.19 1.04 4.88 1.3v3.14c0 .4.33.73.73.73h5.67c.4 0 .73-.33.73-.73v-3.14c1.69-.26 3.33-.7 4.88-1.3l1.56 2.71c.2.35.64.47.99.27l4.91-2.84c.35-.2.47-.64.27-.99l-1.56-2.7c1.32-1.06 2.52-2.26 3.58-3.58l2.7 1.56c.35.2.79.08.99-.27l2.84-4.91c.2-.35.08-.79-.27-.99l-2.71-1.56c.6-1.55 1.04-3.19 1.3-4.88h3.14c.4 0 .73-.33.73-.73v-5.67c0-.4-.32-.73-.72-.73zM27.18 41.29c-7.82 0-14.16-6.34-14.16-14.16s6.34-14.17 14.16-14.17 14.16 6.34 14.16 14.17c.01 7.82-6.34 14.16-14.16 14.16z"/><path class="st0" d="M24.82 27.13c0-1.31 1.06-2.36 2.36-2.36 1.31 0 2.36 1.06 2.36 2.36s-1.06 2.36-2.36 2.36c-1.3 0-2.36-1.06-2.36-2.36z"/></svg>